<mxfile host="app.diagrams.net" modified="2023-10-09T06:15:11.238Z" agent="Mozilla/5.0 (Macintosh; Intel Mac OS X 10_15_7) AppleWebKit/537.36 (KHTML, like Gecko) Chrome/111.0.0.0 Safari/537.36" version="21.7.5" etag="84lKEO6wPxfqNWwD0WoT" type="github">
  <diagram name="第 1 页" id="kxQ2PmpzEZ_O_21yl0-U">
    <mxGraphModel>
      <root>
        <mxCell id="0" />
        <mxCell id="1" parent="0" />
      </root>
    </mxGraphModel>
  </diagram>
</mxfile>
